/* XPM */
static char * ccc_small_xpm[] = {
"32 32 265 2",
"  	c None",
". 	c #C2C2C2",
"+ 	c #C5C5C5",
"@ 	c #C4C4C4",
"# 	c #C3C3C3",
"$ 	c #C7C7C7",
"% 	c #C9C9C9",
"& 	c #C8C8C8",
"* 	c #C6C6C6",
"= 	c #CDCDCD",
"- 	c #CFCFCF",
"; 	c #CECECE",
"> 	c #CBCBCB",
", 	c #BCBCBC",
"' 	c #8A8A8A",
") 	c #B0B0B0",
"! 	c #D3D3D3",
"~ 	c #D9D9D9",
"{ 	c #D7D7D7",
"] 	c #D0D0D0",
"^ 	c #6D6D6D",
"/ 	c #A2A2A2",
"( 	c #D8D8D8",
"_ 	c #DBDBDB",
": 	c #B9B9B9",
"< 	c #DEDEDE",
"[ 	c #DDDDDD",
"} 	c #D3D5D5",
"| 	c #858585",
"1 	c #ECECEC",
"2 	c #F1F1F1",
"3 	c #B8BABA",
"4 	c #DAE1E1",
"5 	c #E2E2E2",
"6 	c #E0E0E0",
"7 	c #DFDFDF",
"8 	c #D8E0E0",
"9 	c #CED3D3",
"0 	c #919191",
"a 	c #EEEEEE",
"b 	c #E4E3E3",
"c 	c #D2D4D4",
"d 	c #B3C1C1",
"e 	c #B56C6C",
"f 	c #DA3D3D",
"g 	c #DED2D2",
"h 	c #E9ECEC",
"i 	c #E9E9E9",
"j 	c #E9EAEA",
"k 	c #E0E3E3",
"l 	c #CC8888",
"m 	c #D6D6D6",
"n 	c #BBC5C5",
"o 	c #C26262",
"p 	c #DB3131",
"q 	c #E2CECE",
"r 	c #F1F8F8",
"s 	c #EAEFEF",
"t 	c #DDCCCC",
"u 	c #D43A3A",
"v 	c #BE0000",
"w 	c #BFBFBF",
"x 	c #B2BFBF",
"y 	c #BD7272",
"z 	c #DE2424",
"A 	c #E2C9C9",
"B 	c #F3FCFC",
"C 	c #F4F4F4",
"D 	c #F3F3F3",
"E 	c #EFF1F1",
"F 	c #DFD6D6",
"G 	c #EFBBBB",
"H 	c #ECA4A4",
"I 	c #CD3C3C",
"J 	c #B40000",
"K 	c #D4D4D4",
"L 	c #CACACA",
"M 	c #AAB2B2",
"N 	c #AB9999",
"O 	c #D53F3F",
"P 	c #E4BEBE",
"Q 	c #F4FFFF",
"R 	c #F6F6F6",
"S 	c #F5F5F5",
"T 	c #F2F5F5",
"U 	c #E0DFDF",
"V 	c #EBB5B5",
"W 	c #EE9999",
"X 	c #E07171",
"Y 	c #D76969",
"Z 	c #BC2222",
"` 	c #A90202",
" .	c #E7E7E7",
"..	c #E4E4E4",
"+.	c #BDBDBD",
"@.	c #DF6666",
"#.	c #E4F1F1",
"$.	c #F4F8F8",
"%.	c #F7F8F8",
"&.	c #F6F8F8",
"*.	c #E5E9E9",
"=.	c #E7AFAF",
"-.	c #EE8282",
";.	c #E26161",
">.	c #DA5959",
",.	c #D35C5C",
"'.	c #C44545",
").	c #A80000",
"!.	c #D9DCDC",
"~.	c #F2F2F2",
"{.	c #B4B4B4",
"].	c #DB0F0F",
"^.	c #E93939",
"/.	c #EDB2B2",
"(.	c #EAF1F1",
"_.	c #E9F2F2",
":.	c #E3A0A0",
"<.	c #EB6060",
"[.	c #E45151",
"}.	c #DC4F4F",
"|.	c #D44E4E",
"1.	c #CC4D4D",
"2.	c #C44747",
"3.	c #A90808",
"4.	c #D4D0D0",
"5.	c #E1E3E3",
"6.	c #EFEFEF",
"7.	c #E6E6E6",
"8.	c #DADADA",
"9.	c #CFD6D6",
"0.	c #C4A7A7",
"a.	c #D58383",
"b.	c #F28989",
"c.	c #EE7878",
"d.	c #E38B8B",
"e.	c #E09494",
"f.	c #E84A4A",
"g.	c #E34545",
"h.	c #DF4646",
"i.	c #D74444",
"j.	c #CE4141",
"k.	c #C33535",
"l.	c #B21919",
"m.	c #A40000",
"n.	c #AD3434",
"o.	c #D2D1D1",
"p.	c #E7E9E9",
"q.	c #F0F0F0",
"r.	c #EAEAEA",
"s.	c #E3E3E3",
"t.	c #DCDCDC",
"u.	c #BABABA",
"v.	c #EFEEEE",
"w.	c #DCE2E2",
"x.	c #B9C4C4",
"y.	c #C67E7E",
"z.	c #E64242",
"A.	c #E63E3E",
"B.	c #E53E3E",
"C.	c #E23E3E",
"D.	c #DD3B3B",
"E.	c #D83535",
"F.	c #CD2929",
"G.	c #BE1717",
"H.	c #AF0606",
"I.	c #A60000",
"J.	c #A10000",
"K.	c #DEDFDF",
"L.	c #E1E1E1",
"M.	c #D5D5D5",
"N.	c #B1B1B1",
"O.	c #EDECEC",
"P.	c #D1D3D3",
"Q.	c #A8ABAB",
"R.	c #CB4F4F",
"S.	c #D92424",
"T.	c #D51D1D",
"U.	c #D01515",
"V.	c #C70A0A",
"W.	c #B90202",
"X.	c #AF0000",
"Y.	c #A80202",
"Z.	c #A30303",
"`.	c #9D0000",
" +	c #C2C1C1",
".+	c #CBCDCD",
"++	c #D2D2D2",
"@+	c #B5B5B5",
"#+	c #AFAFAF",
"$+	c #E5E5E5",
"%+	c #CCCCCC",
"&+	c #ADB9B9",
"*+	c #A86B6B",
"=+	c #CB0000",
"-+	c #CA0101",
";+	c #C60000",
">+	c #C10000",
",+	c #B00303",
"'+	c #AA0303",
")+	c #A50303",
"!+	c #A00303",
"~+	c #9B0000",
"{+	c #BBBDBD",
"]+	c #BEBEBE",
"^+	c #AAAAAA",
"/+	c #ACB1B1",
"(+	c #988787",
"_+	c #BD0909",
":+	c #BE0101",
"<+	c #B90303",
"[+	c #B40303",
"}+	c #AF0303",
"|+	c #A00101",
"1+	c #ACACAC",
"2+	c #A7A7A7",
"3+	c #A4A4A4",
"4+	c #C0C0C0",
"5+	c #AEAEAE",
"6+	c #9A9E9E",
"7+	c #938383",
"8+	c #B20A0A",
"9+	c #B10101",
"0+	c #AE0303",
"a+	c #A60303",
"b+	c #A30101",
"c+	c #9B0404",
"d+	c #B25F5F",
"e+	c #ADADAD",
"f+	c #A8A8A8",
"g+	c #A5A5A5",
"h+	c #C1C1C1",
"i+	c #9C9C9C",
"j+	c #919797",
"k+	c #926F6F",
"l+	c #AB0404",
"m+	c #A70303",
"n+	c #9E0000",
"o+	c #AC2E2E",
"p+	c #D2A3A3",
"q+	c #DFE7E7",
"r+	c #C5CBCB",
"s+	c #B8B8B8",
"t+	c #B3B3B3",
"u+	c #949494",
"v+	c #8B8D8D",
"w+	c #A41111",
"x+	c #B96767",
"y+	c #D0A7A7",
"z+	c #F3EFEF",
"A+	c #F8FEFE",
"B+	c #9E9E9E",
"C+	c #989898",
"D+	c #858686",
"E+	c #DBE7E7",
"F+	c #EFF6F6",
"G+	c #F1F3F3",
"H+	c #E8E7E7",
"I+	c #B6B6B6",
"J+	c #A0A0A0",
"K+	c #9A9A9A",
"L+	c #969696",
"M+	c #8C8C8C",
"N+	c #878787",
"O+	c #B2B2B2",
"P+	c #B7B7B7",
"                                                                ",
"                                                                ",
"                                              . . .             ",
"                                          + @ # . .             ",
"                                        $ + + + @ .             ",
"                                    % % & * $ $ +               ",
"                                  = - ; = > , ' )               ",
"                                ! ~ ~ { ] -   ^ /               ",
"              ( _ = :         { < [ _ }       |                 ",
"            ~ 1 2 < 3       4 5 6 7 8 9       0                 ",
"            7 a b c d e f g h i j k l                           ",
"            ! m = n o p q r 2 2 s t u v                         ",
"            w , x y z A B C D E F G H I J           K ] L .     ",
"              M N O P Q R S T U V W X Y Z `       { <  ...K +.  ",
"                  @.#.$.%.&.*.=.-.;.>.,.'.).    !.i S S ~.i ; {.",
"                ].^./.q (._.:.<.[.}.|.1.2.3.  4.5.S D 6.7.8.] +.",
"        m ( 8.9.0.a.b.c.d.e.f.g.h.i.j.k.l.m.n.o.p.q.r.s.t.K L u.",
"    { _ r.~.D v.w.x.y.z.A.B.C.D.E.F.G.H.I.J.  = K.L.[ _ M.L , N.",
"    ~ 6.R C ~.q.O.P.Q.R.z S.T.U.V.W.X.Y.Z.`.   +.+K ++; * +.@+#+",
"  M.s.S ~.2 a $+( %+&+*+=+-+;+>+W.,+'+)+!+~+    {+w w ]+u.@+#+^+",
"  K i q.1  .7 M.= # /+(+_+:+<+[+}+'+)+|+~+        {.@+{.) 1+2+3+",
"  ] 6 s.[ ( ! > 4+5+6+7+8+9+0+'+a+b+`.c+d+          e+^+f+g+    ",
"  % - ! - L h+@+f+i+j+k+l+` m+b+n+`.o+p+q+r+                    ",
"    +., s+t+1+3+i+u+v+      J.w+x+y+z+A+1 ] {.                  ",
"    #+1+f+3+B+C+0 ' D+          E+F+G+H+[ ; I+5+                ",
"      J+K+L+0 M+N+|             ++5 6 8.; +.O+5+                ",
"                                @ > > + +.@+N.                  ",
"                                  s+s+P+{.) #+                  ",
"                                    ) ) #+5+                    ",
"                                                                ",
"                                                                ",
"                                                                "};
